<svg id="Capa_1" enable-background="new 0 0 512 512" height="512" viewBox="0 0 512 512" width="512" xmlns="http://www.w3.org/2000/svg"><g><circle cx="256" cy="255.885" fill="#698ed5" r="167.54"/><path d="m256 88.345c-4.88 0-9.707.221-14.481.63 85.748 7.343 153.059 79.26 153.059 166.91s-67.311 159.567-153.059 166.91c4.774.409 9.601.63 14.481.63 92.53 0 167.54-75.01 167.54-167.54s-75.01-167.54-167.54-167.54z" fill="#4073c8"/><g fill="#e278b1"><path d="m484.327 271.765 18.495-12.693c2.238-1.536 2.238-4.84 0-6.376l-18.495-12.692c-1.318-.905-3.057-.905-4.376 0l-23.14 15.881 23.14 15.881c1.319.904 3.058.904 4.376-.001z"/><g><path d="m494.456 144.513-12.693-18.495c-1.536-2.238-4.84-2.238-6.376 0l-12.693 18.495c-.905 1.318-.905 3.058 0 4.376l15.881 23.14 15.881-23.14c.905-1.318.905-3.057 0-4.376z"/><path d="m494.456 367.256-12.693 18.495c-1.536 2.238-4.84 2.238-6.376 0l-12.693-18.495c-.905-1.318-.905-3.057 0-4.376l15.881-23.14 15.881 23.14c.905 1.318.905 3.058 0 4.376z"/></g><path d="m27.674 271.765-18.495-12.692c-2.238-1.536-2.238-4.84 0-6.376l18.495-12.692c1.318-.905 3.058-.905 4.376 0l23.14 15.881-23.14 15.881c-1.319.903-3.058.903-4.376-.002z"/><g><path d="m17.545 144.513 12.692-18.495c1.536-2.238 4.84-2.238 6.376 0l12.693 18.495c.905 1.318.905 3.058 0 4.376l-15.881 23.14-15.881-23.14c-.904-1.318-.904-3.057.001-4.376z"/><path d="m17.545 367.256 12.692 18.495c1.536 2.238 4.84 2.238 6.376 0l12.693-18.495c.905-1.318.905-3.057 0-4.376l-15.881-23.14-15.881 23.14c-.904 1.318-.904 3.058.001 4.376z"/></g></g><path d="m88.46 255.884c0 53.651 25.221 101.408 64.45 132.072 14.421-6.956 26.186-18.679 29.267-35.187 2.437-13.053.123-26.506.698-39.673.268-6.129.767-12.821 3.472-18.417 2.292-4.742 6.343-7.8 10.532-10.771 10.298-7.303 23.648-13.949 30.747-24.73 6.399-9.718 8.039-21.802 9.009-33.148 1.098-12.841 1.578-25.674-5.029-37.22-5.672-9.914-13.968-18.091-19.16-28.305-11.539-22.698-2.871-46.722 7.17-68.187-75.033 16.618-131.156 83.533-131.156 163.566z" fill="#b3e59f"/><path d="m256 423.424c51.51 0 97.582-23.253 128.315-59.825-1.884-3.801-3.897-7.512-5.876-11.092-9.895-17.893-25.644-34.079-44.154-43.109-16.849-8.22-36.138-6.014-49.921 7.005-6.485 6.125-10.538 13.678-12.426 22.356-1.94 8.916-3.317 18.302-11.185 24.083-7.481 5.496-14.686 4.061-21.58-1.275-9.022-6.983-18.188 2.628-23.334 9.707-7.272 10.003-14.771 28.014-19.704 41.126 18.592 7.115 38.771 11.024 59.865 11.024z" fill="#b3e59f"/><path d="m371.231 341.225c-26.867 45.296-74.462 76.842-129.721 81.571 4.776.41 9.607.629 14.49.629 51.51 0 97.582-23.253 128.315-59.825-1.884-3.801-3.897-7.512-5.876-11.092-2.135-3.862-4.558-7.636-7.208-11.283z" fill="#95d6a4"/><path d="m394.579 161.709c-20.339-29.87-50.079-52.826-84.968-64.602-.633 2.589-1.253 5.182-1.847 7.782-.979 4.284-3.688 11.006-3.03 15.376.531 3.519 5.586 5.531 8.108 7.864 5.222 4.832 8.926 11.524 9.192 18.724.289 7.813-3.726 14.867-8.17 20.975-4.333 5.956-8.752 11.636-11.993 18.301-3.385 6.961-5.606 14.497-7.094 22.078-1.407 7.164-2.312 15.591 1.329 22.269 3.406 6.247 10.199 9.224 16.82 10.799 6.93 1.649 15.118 2.597 22.1.896 7.144-1.741 12.739-6.808 17.656-12.02 10.464-11.091 19.454-23.628 27.066-36.822 5.831-10.11 10.796-20.685 14.831-31.62z" fill="#b3e59f"/><path d="m381.339 190.502c5.145-9.249 9.579-18.871 13.24-28.793-20.339-29.87-50.079-52.826-84.968-64.602-.633 2.589-1.253 5.182-1.847 7.782-.246 1.076-.601 2.306-.985 3.614 33.237 18.021 59.692 46.956 74.56 81.999z" fill="#95d6a4"/><path d="m507.065 246.513-18.496-12.693c-3.846-2.639-9.015-2.638-12.862.001l-21.22 14.563h-23.613c-.584-13.703-2.758-27.04-6.355-39.817h54.056c4.143 0 7.5-3.357 7.5-7.5v-26.711l14.564-21.222c2.64-3.846 2.641-9.015.001-12.861 0-.001 0-.001-.001-.002l-12.692-18.495c-2.12-3.09-5.624-4.935-9.372-4.935s-7.252 1.845-9.372 4.935l-12.693 18.497c-2.64 3.847-2.639 9.016.001 12.861l14.564 21.222v19.211h-51.523c-22.577-59.061-76.197-103.103-141.428-111.334-4.104-.512-7.861 2.393-8.38 6.503-.519 4.109 2.393 7.861 6.503 8.38 8.385 1.058 16.549 2.768 24.452 5.061-.08.347-.167.693-.247 1.041-.218.954-.587 2.211-.978 3.541-1.351 4.601-2.882 9.815-2.156 14.625.856 5.687 5.441 8.788 8.476 10.84.749.507 1.598 1.08 1.955 1.411 4.141 3.831 6.615 8.75 6.79 13.496.22 5.922-3.486 11.813-6.739 16.284-.562.771-1.124 1.539-1.687 2.304-3.87 5.274-7.873 10.729-10.987 17.131-3.401 6.994-5.923 14.816-7.708 23.912-1.576 8.025-2.762 18.382 2.104 27.304 3.886 7.128 11.176 12.008 21.668 14.506 5.621 1.338 10.847 2.008 15.636 2.008 3.576 0 6.909-.374 9.978-1.121 9.127-2.226 15.906-8.406 21.334-14.16 10.346-10.965 19.802-23.824 28.106-38.221 3.524-6.107 6.743-12.41 9.648-18.839 12.858 23.111 20.148 49.638 20.148 77.648 0 35.058-11.34 67.513-30.532 93.908-.17-.308-.34-.617-.505-.915-4.839-8.749-10.854-16.913-17.878-24.265-2.863-2.995-7.609-3.103-10.604-.241-2.994 2.861-3.103 7.609-.241 10.604 6.134 6.419 11.382 13.539 15.597 21.161 1.065 1.925 2.238 4.076 3.417 6.31-29.327 32.796-71.937 53.477-119.292 53.477-17.483 0-34.316-2.828-50.077-8.033 5.837-14.65 11.428-25.945 15.982-32.208 5.68-7.812 9.311-8.875 10.287-9.015.393-.057 1.116-.158 2.39.829 10.209 7.899 21.079 8.391 30.611 1.387 9.515-6.99 11.782-17.712 13.604-26.328.155-.735.311-1.471.47-2.204 1.603-7.364 5.05-13.588 10.247-18.498 11.176-10.556 27.072-12.746 41.484-5.715 1.062.519 2.149 1.084 3.322 1.729 3.631 1.994 8.19.668 10.186-2.961 1.994-3.631.669-8.19-2.961-10.186-1.389-.763-2.688-1.438-3.972-2.063-20.165-9.839-42.528-6.661-58.359 8.292-7.435 7.023-12.348 15.844-14.604 26.214-.166.761-.327 1.525-.489 2.29-1.559 7.373-2.905 13.74-7.809 17.343-3.402 2.498-6.838 3.259-12.549-1.161-4.118-3.188-8.851-4.508-13.69-3.816-6.933.99-13.763 6.051-20.301 15.044-6.443 8.861-12.898 23.199-17.854 35.656-8.885-3.898-17.356-8.571-25.315-13.95 12.351-8.742 20.376-20.652 22.947-34.423 1.669-8.945 1.325-17.778.992-26.321-.195-5.005-.379-9.732-.175-14.4.238-5.468.646-11.166 2.73-15.479 1.473-3.044 4.419-5.294 8.119-7.917 2.379-1.688 4.948-3.352 7.669-5.113 2.424-1.569 4.93-3.192 7.404-4.903 3.406-2.355 4.259-7.027 1.903-10.435-2.356-3.406-7.026-4.259-10.435-1.903-2.287 1.581-4.696 3.142-7.026 4.65-2.731 1.769-5.556 3.598-8.193 5.469-5.1 3.616-9.927 7.38-12.946 13.624-3.326 6.883-3.918 14.631-4.212 21.354-.23 5.287-.025 10.55.173 15.639.314 8.071.611 15.694-.75 22.984-2.658 14.238-12.981 22.888-20.974 27.579-35.331-29.377-57.866-73.641-57.87-123.072 0-.005.001-.01.001-.016 0-.005-.001-.01-.001-.015.007-70.922 46.149-131.433 110.643-152.272-7.572 19.686-11.082 40.166-.843 60.308 3.109 6.117 7.094 11.399 10.946 16.508 3.098 4.107 6.022 7.987 8.39 12.124 5.524 9.655 5.075 21.051 4.065 32.856-.664 7.771-1.658 15.937-4.41 22.998-1.504 3.86.405 8.208 4.265 9.712.896.349 1.815.514 2.722.514 3.001 0 5.835-1.814 6.99-4.778 3.441-8.833 4.619-18.277 5.379-27.167 1.172-13.695 1.674-28.188-5.991-41.584-2.838-4.961-6.191-9.407-9.434-13.706-3.62-4.801-7.04-9.336-9.551-14.273-8.865-17.44-4.311-36.01 5.729-58.237 7.399-1.453 14.984-2.406 22.725-2.806 4.137-.215 7.316-3.741 7.103-7.878-.215-4.137-3.751-7.299-7.878-7.103-71.125 3.682-130.463 49.459-154.443 112.482h-51.442v-19.212l14.562-21.218c2.644-3.848 2.645-9.02.002-12.867l-12.692-18.495c-2.12-3.09-5.624-4.935-9.372-4.935-3.747 0-7.251 1.845-9.371 4.935l-12.692 18.495c-.001.001-.001.001-.001.002-2.64 3.847-2.639 9.016.001 12.861l14.564 21.222v26.711c0 4.143 3.357 7.5 7.5 7.5h54.008c-3.568 12.754-5.727 26.087-6.306 39.817h-23.615l-21.222-14.564c-3.846-2.639-9.015-2.64-12.862.001l-18.495 12.688c-3.09 2.12-4.935 5.624-4.935 9.371 0 3.748 1.845 7.252 4.935 9.372l18.495 12.693c.001.001.001.001.002.001 1.923 1.319 4.176 1.979 6.43 1.979s4.509-.66 6.433-1.979l21.223-14.565h23.614c.582 13.738 2.748 27.071 6.332 39.819h-54.038c-4.143 0-7.5 3.357-7.5 7.5v26.711l-14.566 21.223c-2.639 3.846-2.639 9.015 0 12.86 0 .001 0 .001.001.002l12.692 18.495c2.12 3.09 5.624 4.935 9.371 4.935 3.748 0 7.252-1.845 9.372-4.935l12.691-18.494c2.643-3.848 2.643-9.019.001-12.865l-14.563-21.221v-19.211h51.509c25.785 67.45 90.563 112.722 163.566 112.722 74.407 0 138.335-46.725 163.564-112.722h51.51v19.211l-14.565 21.223c-2.639 3.846-2.639 9.015.001 12.862l12.692 18.495c2.12 3.09 5.624 4.935 9.372 4.935s7.252-1.845 9.372-4.935l12.694-18.495c.001-.001.001-.001.001-.002 2.639-3.846 2.639-9.015-.001-12.862l-14.564-21.222v-26.711c0-4.143-3.357-7.5-7.5-7.5h-54.039c3.584-12.748 5.75-26.082 6.332-39.819h23.615l21.225 14.566c1.923 1.319 4.177 1.979 6.43 1.979 2.254 0 4.508-.659 6.431-1.979.001 0 .001-.001.002-.001l18.494-12.693c3.09-2.12 4.935-5.624 4.935-9.372-.001-3.747-1.846-7.251-4.936-9.371zm-36.776-99.812 8.286-12.074 8.286 12.074-8.286 12.073zm-97.038 42.879c-7.724 13.388-16.479 25.306-26.024 35.424-4.119 4.365-8.663 8.584-13.976 9.879-4.778 1.165-11.207.853-18.588-.904-6.267-1.492-10.183-3.812-11.972-7.095-2.567-4.707-1.645-11.682-.555-17.233 1.533-7.808 3.652-14.429 6.479-20.242 2.521-5.181 5.955-9.86 9.591-14.814.574-.782 1.149-1.565 1.723-2.354 4.674-6.424 9.989-15.147 9.601-25.663-.321-8.701-4.547-17.432-11.594-23.953-1.196-1.106-2.488-1.98-3.738-2.825-.597-.404-1.49-1.008-2.06-1.469.134-1.911 1.146-5.36 1.729-7.346.405-1.379.777-2.679 1.082-3.932 28.878 11.449 53.477 31.035 71.18 55.771-3.607 9.192-7.929 18.177-12.878 26.756zm-348.111-42.879 8.286-12.073 8.285 12.073-8.285 12.073zm4.722 117.47-12.074-8.286 12.073-8.286 12.074 8.286zm11.849 100.896-8.285 12.074-8.286-12.073 8.286-12.073zm445.15.001-8.286 12.074-8.286-12.074 8.286-12.074zm-4.722-100.897-12.073-8.286 12.074-8.286 12.072 8.286z"/></g></svg>