<svg id="Capa_1" enable-background="new 0 0 512 512" height="512" viewBox="0 0 512 512" width="512" xmlns="http://www.w3.org/2000/svg"><g><circle cx="256" cy="256" fill="#4db5ff" r="128"/><path d="m400 240h-64.758c-3.83-82.99-36.392-144-79.242-144s-75.412 61.01-79.242 144h-64.758v32h64.758c3.83 82.99 36.393 144 79.242 144s75.412-61.01 79.242-144h64.758zm-144-112c18.176 0 43.678 43.314 47.279 112h-94.559c3.602-68.686 29.104-112 47.28-112zm0 256c-18.176 0-43.678-43.314-47.279-112h94.559c-3.602 68.686-29.104 112-47.28 112z" fill="#37f"/><g id="Worldwide"><path d="m256 0c-141.385 0-256 114.615-256 256s114.615 256 256 256 256-114.615 256-256-114.615-256-256-256zm0 480c-123.516 0-224-100.484-224-224s100.484-224 224-224 224 100.484 224 224-100.484 224-224 224z" fill="#80eaff"/><circle cx="86.294" cy="86.294" fill="#4db5ff" r="48"/><circle cx="425.706" cy="425.706" fill="#4db5ff" r="48"/><path d="m256 416c-88.219 0-160-71.781-160-160s71.781-160 160-160 160 71.781 160 160-71.781 160-160 160zm0-288c-70.578 0-128 57.422-128 128s57.422 128 128 128 128-57.422 128-128-57.422-128-128-128z" fill="#80eaff"/></g></g></svg>